# xmcd
#
# Track frame offsets:
#	150
#	32448
#	45696
#	57294
#	75192
#	88290
#	104838
#	117711
#	135009
#	147732
#	162030
#	177228
#	190776
#	206799
#	216897
#	232695
#	245493
#	263541
#	277089
#	287637
#
# Disc length: 4014 seconds
#
# Revision: 1
# Processed by: cddbd v1.5.2PL0 Copyright (c) Steve Scherf et al.
# Submitted via: audiograbber 1.83.01
#
DISCID=210fac14
DTITLE=Various Artist - Lo Mejor Del 2008
DYEAR=1900
DGENRE=
TTITLE0=Durangense Mix
TTITLE1=Por Amerte As - Alacranes Musical
TTITLE2=Tal Vez - Los Primos De Durango
TTITLE3=Hast El Dia De Hoy - Dareyes De La Sierra
TTITLE4=Tal Vez - Ponsona Musical
TTITLE5=Amor Te Amo - Tierra Cali
TTITLE6=Fruta Prohibida - Los Elegidos
TTITLE7=Un Buen Perdedor - K-Paz
TTITLE8=Por Quien Me Dejas - Los Creadores
TTITLE9=La Imagen De Malverde - Montez De Durango
TTITLE10=Dulce Veneno Grupo Uranio
TTITLE11=La Aveja Miope - Brazeros Musical
TTITLE12=Solo Pienso En Ti - Aliados De La Sierra
TTITLE13=Celoso - DGO Musical
TTITLE14=Ganas De volver A Amar - El Trono De Mexico
TTITLE15=Se Fue - El trono De Mexico
TTITLE16=Abrazame y Perdoname - La Apuesta
TTITLE17=Ayudame a Olvidar - Los Primos De Durango
TTITLE18=Te Quiero Mucho - Patrulla 81
TTITLE19=Angel De La Manana - Ponsona Musical
EXTD=
EXTT0=
EXTT1=
EXTT2=
EXTT3=
EXTT4=
EXTT5=
EXTT6=
EXTT7=
EXTT8=
EXTT9=
EXTT10=
EXTT11=
EXTT12=
EXTT13=
EXTT14=
EXTT15=
EXTT16=
EXTT17=
EXTT18=
EXTT19=
PLAYORDER=
